{
  "accessors": [
    {
      "bufferView": 1,
      "componentType": 5126,
      "count": 65532,
      "max": [
        0.37863999605178833,
        0.15345999598503113,
        1.6401599645614624
      ],
      "min": [
        -0.80593997240066528,
        -1.0415199995040894,
        -0.69596999883651733
      ],
      "type": "VEC3"
    },
    {
      "bufferView": 1,
      "byteOffset": 786384,
      "componentType": 5126,
      "count": 65532,
      "max": [
        0.99999910593032837,
        0.99999910593032837,
        0.99999982118606567
      ],
      "min": [
        -1,
        -0.99999052286148071,
        -0.99999803304672241
      ],
      "type": "VEC3"
    },
    {
      "bufferView": 0,
      "componentType": 5125,
      "count": 106101,
      "max": [
        65531
      ],
      "min": [
        0
      ],
      "type": "SCALAR"
    },
    {
      "bufferView": 1,
      "byteOffset": 1572768,
      "componentType": 5126,
      "count": 65532,
      "max": [
        1.0516599416732788,
        -0.011119999922811985,
        0.4177899956703186
      ],
      "min": [
        0.026240000501275063,
        -1.0415199995040894,
        -0.76406997442245483
      ],
      "type": "VEC3"
    },
    {
      "bufferView": 1,
      "byteOffset": 2359152,
      "componentType": 5126,
      "count": 65532,
      "max": [
        0.99999922513961792,
        0.99999970197677612,
        0.99999946355819702
      ],
      "min": [
        -0.99999982118606567,
        -0.99999922513961792,
        -0.99999934434890747
      ],
      "type": "VEC3"
    },
    {
      "bufferView": 0,
      "byteOffset": 424404,
      "componentType": 5125,
      "count": 110367,
      "max": [
        65531
      ],
      "min": [
        0
      ],
      "type": "SCALAR"
    },
    {
      "bufferView": 1,
      "byteOffset": 3145536,
      "componentType": 5126,
      "count": 65532,
      "max": [
        1.1249500513076782,
        0.31610998511314392,
        1.6374900341033936
      ],
      "min": [
        0.024359999224543571,
        -1.02006995677948,
        -0.76616001129150391
      ],
      "type": "VEC3"
    },
    {
      "bufferView": 1,
      "byteOffset": 3931920,
      "componentType": 5126,
      "count": 65532,
      "max": [
        0.99999970197677612,
        0.99999922513961792,
        0.99999624490737915
      ],
      "min": [
        -0.99999505281448364,
        -0.99999743700027466,
        -0.99999922513961792
      ],
      "type": "VEC3"
    },
    {
      "bufferView": 0,
      "byteOffset": 865872,
      "componentType": 5125,
      "count": 111870,
      "max": [
        65531
      ],
      "min": [
        0
      ],
      "type": "SCALAR"
    },
    {
      "bufferView": 1,
      "byteOffset": 4718304,
      "componentType": 5126,
      "count": 64308,
      "max": [
        1.1249500513076782,
        0.48410999774932861,
        1.6403199434280396
      ],
      "min": [
        -0.80593997240066528,
        -1.0415199995040894,
        -0.76616001129150391
      ],
      "type": "VEC3"
    },
    {
      "bufferView": 1,
      "byteOffset": 5490000,
      "componentType": 5126,
      "count": 64308,
      "max": [
        0.99999994039535522,
        1,
        0.99999982118606567
      ],
      "min": [
        -1,
        -1,
        -0.99999970197677612
      ],
      "type": "VEC3"
    },
    {
      "bufferView": 0,
      "byteOffset": 1313352,
      "componentType": 5125,
      "count": 97959,
      "max": [
        64307
      ],
      "min": [
        0
      ],
      "type": "SCALAR"
    }
  ],
  "asset": {
    "extras": {
      "author": "llama_guy (https://sketchfab.com/llama_guy)",
      "license": "CC-BY-4.0 (http://creativecommons.org/licenses/by/4.0/)",
      "source": "https://sketchfab.com/models/e34350df393544de8fb3f0efe02fc2ea",
      "title": "Wireframe Destruction"
    },
    "generator": "Sketchfab-3.18.7",
    "version": "2.0"
  },
  "bufferViews": [
    {
      "buffer": 0,
      "byteLength": 1705188,
      "byteOffset": 0,
      "name": "floatBufferViews",
      "target": 34963
    },
    {
      "buffer": 0,
      "byteLength": 6261696,
      "byteOffset": 1705188,
      "byteStride": 12,
      "name": "floatBufferViews",
      "target": 34962
    }
  ],
  "buffers": [
    {
      "byteLength": 7966884,
      "uri": "scene.bin"
    }
  ],
  "extensionsRequired": [
    "KHR_materials_pbrSpecularGlossiness"
  ],
  "extensionsUsed": [
    "KHR_materials_pbrSpecularGlossiness"
  ],
  "materials": [
    {
      "doubleSided": true,
      "emissiveFactor": [
        0.26163055734157098,
        0.74542689590252287,
        0.55531773237991056
      ],
      "extensions": {
        "KHR_materials_pbrSpecularGlossiness": {
          "diffuseFactor": [
            1,
            1,
            1,
            1
          ],
          "glossinessFactor": 1,
          "specularFactor": [
            1,
            1,
            1
          ]
        }
      },
      "name": "Material.001"
    }
  ],
  "meshes": [
    {
      "name": "Icosphere_0",
      "primitives": [
        {
          "attributes": {
            "NORMAL": 1,
            "POSITION": 0
          },
          "indices": 2,
          "material": 0,
          "mode": 4
        }
      ]
    },
    {
      "name": "Icosphere_0",
      "primitives": [
        {
          "attributes": {
            "NORMAL": 4,
            "POSITION": 3
          },
          "indices": 5,
          "material": 0,
          "mode": 4
        }
      ]
    },
    {
      "name": "Icosphere_0",
      "primitives": [
        {
          "attributes": {
            "NORMAL": 7,
            "POSITION": 6
          },
          "indices": 8,
          "material": 0,
          "mode": 4
        }
      ]
    },
    {
      "name": "Icosphere_0",
      "primitives": [
        {
          "attributes": {
            "NORMAL": 10,
            "POSITION": 9
          },
          "indices": 11,
          "material": 0,
          "mode": 4
        }
      ]
    }
  ],
  "nodes": [
    {
      "children": [
        1
      ],
      "name": "RootNode (gltf orientation matrix)",
      "rotation": [
        -0.70710678118654746,
        -0,
        -0,
        0.70710678118654757
      ]
    },
    {
      "children": [
        2
      ],
      "name": "RootNode (model correction matrix)"
    },
    {
      "children": [
        3
      ],
      "name": "Root"
    },
    {
      "children": [
        4,
        5,
        6,
        7
      ],
      "matrix": [
        1,
        0,
        0,
        0,
        0,
        1,
        0,
        0,
        0,
        0,
        1,
        0,
        -0.00067000000000000024,
        0,
        0,
        1
      ],
      "name": "Icosphere"
    },
    {
      "mesh": 0,
      "name": "Icosphere_0"
    },
    {
      "mesh": 1,
      "name": "Icosphere_0"
    },
    {
      "mesh": 2,
      "name": "Icosphere_0"
    },
    {
      "mesh": 3,
      "name": "Icosphere_0"
    }
  ],
  "scene": 0,
  "scenes": [
    {
      "name": "OSG_Scene",
      "nodes": [
        0
      ]
    }
  ]
}

